<svg width="60" height="60" viewBox="0 0 60 60" fill="none" xmlns="http://www.w3.org/2000/svg">
<g clip-path="url(#clip0_315_53191)">
<path fill-rule="evenodd" clip-rule="evenodd" d="M41.5558 26.1928C42.9003 26.2319 43.9724 26.4548 45.1656 27.1356C45.7725 27.4819 46.2594 27.9716 46.6868 28.4549C47.1324 28.9589 47.4857 29.4202 47.898 29.8285L47.8989 29.8286C48.3828 30.3072 48.8076 30.4862 49.2286 30.5215C49.6732 30.5588 50.1648 30.4421 50.7973 30.2279C52.5383 29.6385 54.3934 29.8661 56.0103 30.6463L56.0111 30.6474C58.35 31.7778 59.8986 34.0317 59.4491 36.7659C58.9979 39.5118 56.8726 40.9086 54.1254 42.4915C53.8146 42.6706 53.5075 42.7977 53.2284 42.9043C52.9377 43.0153 52.7047 43.094 52.4784 43.1933C52.0583 43.3775 51.7803 43.583 51.614 44.0097C51.428 44.4874 51.4366 45.0337 51.4517 45.6976C51.466 46.3252 51.4853 47.0634 51.2177 47.7532C50.9951 48.3272 50.5553 48.9375 50.002 49.2304C49.7152 49.382 49.3719 49.461 49.0148 49.3648C48.658 49.2686 48.3584 49.0168 48.1207 48.6505C47.9074 48.3217 47.8315 47.96 47.8101 47.6185C47.7891 47.2838 47.8201 46.9318 47.8437 46.6207C47.8934 45.9625 47.9061 45.4559 47.6519 45.0423C47.471 44.8139 47.1866 44.6718 46.8014 44.5793C46.3892 44.4804 45.9934 44.4604 45.5541 44.3954C44.6052 44.2551 43.648 43.9889 42.7625 43.6252C41.8151 43.2362 41.3158 43.1473 40.9565 43.2301C40.6123 43.3095 40.2951 43.5713 39.7838 44.2262C39.2642 44.8909 38.4911 45.5167 37.7477 45.7058C37.3657 45.8029 36.937 45.7957 36.57 45.5461C36.2056 45.2982 35.9946 44.8737 35.9067 44.3399C35.8185 43.8046 35.9692 43.2921 36.2137 42.8551C36.4581 42.4184 36.8108 42.03 37.1788 41.7193C37.4416 41.4974 37.7186 41.2956 37.9465 41.1203C38.1839 40.9376 38.3762 40.777 38.5233 40.6125C38.6665 40.4523 38.7546 40.3002 38.7952 40.1371C38.8252 40.0157 38.8342 39.8679 38.8012 39.6806L38.7529 39.4789C38.3815 38.2131 37.7238 37.0321 37.1337 35.7206C36.5578 34.4407 36.0693 33.0721 36.1696 31.5747C36.3618 28.707 38.3586 26.1001 41.5558 26.1928ZM47.1804 35.8621C46.7269 35.7198 46.3057 35.9103 46.0762 36.0229C45.064 36.5221 43.2479 38.7825 42.9629 39.6343C42.8702 39.9113 42.8993 40.0781 42.9087 40.1256C42.9576 40.3861 43.1361 40.5806 43.3457 40.744C43.9165 41.1885 44.7544 41.4946 46.0411 41.6991C46.3288 41.7444 46.7405 41.8092 47.2274 41.7959C47.3983 41.7857 47.5966 41.7559 47.8289 41.4325C48.0246 41.1581 48.057 40.8722 48.0774 40.6946C48.2087 39.5558 48.1743 39.7892 48.2562 38.9075C48.365 37.7285 48.2514 36.9676 47.8868 36.4424C47.7721 36.2777 47.561 35.9811 47.1804 35.8621ZM53.9958 33.3628C53.8006 33.3295 53.0385 33.2772 52.3762 33.4149C51.8488 33.5248 50.7735 33.8185 50.1758 34.3004C50.0506 34.401 49.9002 34.4727 49.9082 34.7232C49.9115 34.8434 49.9934 34.9016 50.0401 34.9847C50.5233 35.7116 51.138 36.8559 51.4034 38.3571C51.5111 38.9649 51.4335 39.882 51.9333 39.9492C52.2877 39.9968 52.7393 39.6171 53.8175 38.7446C54.927 37.8459 55.249 37.4614 55.5244 37.0555C55.7845 36.6717 55.8779 36.3143 55.9327 36.1502C56.0807 35.7113 56.1273 34.9083 55.3436 34.074C54.8305 33.5288 54.1882 33.3951 53.9958 33.3628ZM43.2787 30.1081C43.1048 30.0188 42.5111 29.7415 41.7716 29.871C40.6401 30.0684 40.1922 30.7371 40.0441 31.1768C39.9885 31.3413 39.8468 31.6826 39.8213 32.1448C39.796 32.634 39.8199 33.1328 40.1634 34.5146C40.4958 35.8551 40.6258 36.4285 40.9381 36.6023C41.3786 36.847 41.8723 36.0684 42.326 35.6473C43.4475 34.6064 44.6308 34.0589 45.4566 33.7661C45.5439 33.7281 45.6452 33.7315 45.7206 33.6375C45.8783 33.4416 45.8013 33.2943 45.763 33.1387C45.5771 32.397 44.8959 31.5195 44.5416 31.1171C44.0953 30.6107 43.4541 30.1976 43.2787 30.1081Z" fill="#E6A65D"/>
<path d="M41.5558 26.1928L41.5703 25.693L41.5703 25.693L41.5558 26.1928ZM45.1656 27.1356L44.9178 27.5699L44.9178 27.57L45.1656 27.1356ZM46.6868 28.4549L47.0613 28.1237L47.0613 28.1237L46.6868 28.4549ZM47.898 29.8285L47.5461 30.1838L47.6649 30.3013L47.8304 30.3239L47.898 29.8285ZM47.8989 29.8286L48.2505 29.4731L48.1319 29.3558L47.9665 29.3332L47.8989 29.8286ZM49.2286 30.5215L49.1868 31.0198L49.1868 31.0198L49.2286 30.5215ZM50.7973 30.2279L50.9577 30.7015L50.9577 30.7015L50.7973 30.2279ZM56.0103 30.6463L56.4084 30.3438L56.3358 30.2482L56.2276 30.196L56.0103 30.6463ZM56.0111 30.6474L55.6131 30.95L55.6856 31.0454L55.7936 31.0976L56.0111 30.6474ZM59.4491 36.7659L58.9557 36.6848L58.9557 36.6848L59.4491 36.7659ZM54.1254 42.4915L53.8758 42.0582L53.8758 42.0582L54.1254 42.4915ZM53.2284 42.9043L53.4067 43.3714L53.4067 43.3714L53.2284 42.9043ZM52.4784 43.1933L52.2776 42.7353L52.2775 42.7354L52.4784 43.1933ZM51.614 44.0097L51.1481 43.8281L51.148 43.8283L51.614 44.0097ZM51.4517 45.6976L50.9519 45.709L50.9519 45.709L51.4517 45.6976ZM51.2177 47.7532L50.7515 47.5723L50.7515 47.5725L51.2177 47.7532ZM50.002 49.2304L50.2357 49.6724L50.2358 49.6723L50.002 49.2304ZM49.0148 49.3648L48.8846 49.8475L48.8846 49.8475L49.0148 49.3648ZM48.1207 48.6505L47.7012 48.9226L47.7013 48.9226L48.1207 48.6505ZM47.8101 47.6185L47.311 47.6497L47.311 47.6499L47.8101 47.6185ZM47.8437 46.6207L48.3422 46.6584L48.3422 46.6584L47.8437 46.6207ZM47.6519 45.0423L48.0779 44.7805L48.0623 44.7551L48.0439 44.7318L47.6519 45.0423ZM46.8014 44.5793L46.9181 44.0931L46.9181 44.0931L46.8014 44.5793ZM45.5541 44.3954L45.6273 43.9007L45.6272 43.9007L45.5541 44.3954ZM42.7625 43.6252L42.5725 44.0878L42.5725 44.0878L42.7625 43.6252ZM40.9565 43.2301L40.8443 42.7428L40.8441 42.7429L40.9565 43.2301ZM39.7838 44.2262L40.1777 44.5341L40.1779 44.5339L39.7838 44.2262ZM37.7477 45.7058L37.8709 46.1904L37.871 46.1904L37.7477 45.7058ZM36.57 45.5461L36.2888 45.9595L36.2889 45.9596L36.57 45.5461ZM35.9067 44.3399L35.4133 44.4212L35.4133 44.4212L35.9067 44.3399ZM36.2137 42.8551L35.7774 42.6109L35.7773 42.611L36.2137 42.8551ZM37.1788 41.7193L36.8562 41.3372L36.8562 41.3373L37.1788 41.7193ZM37.9465 41.1203L38.2514 41.5166L38.2514 41.5165L37.9465 41.1203ZM38.5233 40.6125L38.896 40.9458L38.8961 40.9457L38.5233 40.6125ZM38.7952 40.1371L39.2804 40.2577L39.2805 40.2574L38.7952 40.1371ZM38.8012 39.6806L39.2937 39.5939L39.291 39.5788L39.2875 39.564L38.8012 39.6806ZM38.7529 39.4789L39.2391 39.3623L39.2362 39.3501L39.2327 39.3381L38.7529 39.4789ZM37.1337 35.7206L36.6777 35.9258L36.6777 35.9258L37.1337 35.7206ZM36.1696 31.5747L35.6707 31.5413L35.6707 31.5413L36.1696 31.5747ZM47.1804 35.8621L47.0307 36.3391L47.0311 36.3393L47.1804 35.8621ZM46.0762 36.0229L45.856 35.574L45.8551 35.5745L46.0762 36.0229ZM42.9629 39.6343L42.4887 39.4756L42.4887 39.4757L42.9629 39.6343ZM42.9087 40.1256L43.4001 40.0333L43.3993 40.029L42.9087 40.1256ZM43.3457 40.744L43.0383 41.1384L43.0385 41.1385L43.3457 40.744ZM46.0411 41.6991L45.9626 42.1929L45.9635 42.1931L46.0411 41.6991ZM47.2274 41.7959L47.2411 42.2957L47.2492 42.2955L47.2573 42.295L47.2274 41.7959ZM47.8289 41.4325L48.235 41.7243L48.2361 41.7228L47.8289 41.4325ZM48.0774 40.6946L47.5807 40.6374L47.5807 40.6374L48.0774 40.6946ZM48.2562 38.9075L48.754 38.9537L48.7541 38.9534L48.2562 38.9075ZM47.8868 36.4424L48.2975 36.1572L48.2971 36.1567L47.8868 36.4424ZM53.9958 33.3628L53.9116 33.8557L53.9132 33.856L53.9958 33.3628ZM52.3762 33.4149L52.2744 32.9254L52.2742 32.9254L52.3762 33.4149ZM50.1758 34.3004L50.4888 34.6903L50.4896 34.6897L50.1758 34.3004ZM49.9082 34.7232L50.408 34.7095L50.4079 34.7073L49.9082 34.7232ZM50.0401 34.9847L49.6041 35.2295L49.6133 35.2458L49.6237 35.2615L50.0401 34.9847ZM51.4034 38.3571L50.911 38.4442L50.9111 38.4443L51.4034 38.3571ZM51.9333 39.9492L51.8667 40.4447L51.8667 40.4447L51.9333 39.9492ZM53.8175 38.7446L54.132 39.1333L54.1322 39.1331L53.8175 38.7446ZM55.5244 37.0555L55.9381 37.3362L55.9383 37.336L55.5244 37.0555ZM55.9327 36.1502L55.4589 35.9904L55.4584 35.9919L55.9327 36.1502ZM55.3436 34.074L55.7081 33.7317L55.7077 33.7313L55.3436 34.074ZM43.2787 30.1081L43.0503 30.5529L43.0515 30.5535L43.2787 30.1081ZM41.7716 29.871L41.8575 30.3635L41.8578 30.3635L41.7716 29.871ZM40.0441 31.1768L40.5178 31.3368L40.5179 31.3365L40.0441 31.1768ZM39.8213 32.1448L39.3221 32.1173L39.322 32.119L39.8213 32.1448ZM40.1634 34.5146L40.6487 34.3942L40.6486 34.3939L40.1634 34.5146ZM40.9381 36.6023L40.695 37.0392L40.6953 37.0394L40.9381 36.6023ZM42.326 35.6473L42.6661 36.0138L42.6661 36.0138L42.326 35.6473ZM45.4566 33.7661L45.6237 34.2374L45.6402 34.2315L45.6563 34.2245L45.4566 33.7661ZM45.7206 33.6375L45.3311 33.324L45.3306 33.3246L45.7206 33.6375ZM45.763 33.1387L46.2485 33.0191L46.248 33.0171L45.763 33.1387ZM44.5416 31.1171L44.9169 30.7867L44.9168 30.7866L44.5416 31.1171ZM41.5558 26.1928L41.5412 26.6926C42.8255 26.73 43.8125 26.9393 44.9178 27.5699L45.1656 27.1356L45.4134 26.7014C44.1323 25.9704 42.9751 25.7339 41.5703 25.693L41.5558 26.1928ZM45.1656 27.1356L44.9178 27.57C45.4519 27.8746 45.895 28.3143 46.3122 28.7861L46.6868 28.4549L47.0613 28.1237C46.6238 27.6289 46.0931 27.0891 45.4133 26.7013L45.1656 27.1356ZM46.6868 28.4549L46.3122 28.7861C46.7251 29.2531 47.1205 29.7623 47.5461 30.1838L47.898 29.8285L48.2498 29.4732C47.8509 29.0782 47.5397 28.6647 47.0613 28.1237L46.6868 28.4549ZM47.898 29.8285L47.8304 30.3239L47.8314 30.324L47.8989 29.8286L47.9665 29.3332L47.9656 29.3331L47.898 29.8285ZM47.8989 29.8286L47.5473 30.1841C48.0991 30.7299 48.6291 30.9729 49.1868 31.0198L49.2286 30.5215L49.2705 30.0233C48.9861 29.9994 48.6665 29.8845 48.2505 29.4731L47.8989 29.8286ZM49.2286 30.5215L49.1868 31.0198C49.7415 31.0663 50.3174 30.9183 50.9577 30.7015L50.7973 30.2279L50.637 29.7543C50.0121 29.9659 49.6048 30.0514 49.2704 30.0233L49.2286 30.5215ZM50.7973 30.2279L50.9577 30.7015C52.5551 30.1607 54.2742 30.3637 55.793 31.0966L56.0103 30.6463L56.2276 30.196C54.5125 29.3684 52.5215 29.1164 50.637 29.7543L50.7973 30.2279ZM56.0103 30.6463L55.6122 30.9489L55.6131 30.95L56.0111 30.6474L56.4092 30.3449L56.4084 30.3438L56.0103 30.6463ZM56.0111 30.6474L55.7936 31.0976C57.9783 32.1535 59.3617 34.2152 58.9557 36.6848L59.4491 36.7659L59.9425 36.847C60.4355 33.8481 58.7217 31.4021 56.2287 30.1973L56.0111 30.6474ZM59.4491 36.7659L58.9557 36.6848C58.5477 39.1678 56.649 40.4603 53.8758 42.0582L54.1254 42.4915L54.375 42.9247C57.0962 41.3568 59.448 39.8559 59.9425 36.847L59.4491 36.7659ZM54.1254 42.4915L53.8758 42.0582C53.5988 42.2178 53.3203 42.334 53.05 42.4372L53.2284 42.9043L53.4067 43.3714C53.6946 43.2615 54.0303 43.1233 54.3751 42.9247L54.1254 42.4915ZM53.2284 42.9043L53.0501 42.4372C52.7834 42.539 52.5181 42.6299 52.2776 42.7353L52.4784 43.1933L52.6791 43.6512C52.8912 43.5582 53.0919 43.4916 53.4067 43.3714L53.2284 42.9043ZM52.4784 43.1933L52.2775 42.7354C51.791 42.9488 51.3808 43.2312 51.1481 43.8281L51.614 44.0097L52.0798 44.1913C52.1798 43.9348 52.3255 43.8063 52.6792 43.6511L52.4784 43.1933ZM51.614 44.0097L51.148 43.8283C50.9191 44.4165 50.9373 45.0699 50.9519 45.709L51.4517 45.6976L51.9516 45.6862C51.9359 44.9976 51.937 44.5583 52.0799 44.1911L51.614 44.0097ZM51.4517 45.6976L50.9519 45.709C50.9665 46.3527 50.9774 46.9901 50.7515 47.5723L51.2177 47.7532L51.6838 47.934C51.9932 47.1366 51.9655 46.2977 51.9516 45.6862L51.4517 45.6976ZM51.2177 47.7532L50.7515 47.5725C50.5568 48.0745 50.1822 48.5692 49.7681 48.7884L50.002 49.2304L50.2358 49.6723C50.9283 49.3058 51.4334 48.5798 51.6838 47.9339L51.2177 47.7532ZM50.002 49.2304L49.7682 48.7883C49.5614 48.8977 49.3491 48.937 49.1449 48.882L49.0148 49.3648L48.8846 49.8475C49.3947 49.985 49.8691 49.8662 50.2357 49.6724L50.002 49.2304ZM49.0148 49.3648L49.145 48.882C48.9402 48.8268 48.7319 48.6738 48.5401 48.3783L48.1207 48.6505L47.7013 48.9226C47.985 49.3598 48.3759 49.7103 48.8846 49.8475L49.0148 49.3648ZM48.1207 48.6505L48.5402 48.3783C48.3902 48.1471 48.3274 47.8793 48.3091 47.5872L47.8101 47.6185L47.311 47.6499C47.3356 48.0407 47.4247 48.4963 47.7012 48.9226L48.1207 48.6505ZM47.8101 47.6185L48.3091 47.5873C48.2908 47.2949 48.3177 46.9823 48.3422 46.6584L47.8437 46.6207L47.3451 46.5831C47.3225 46.8813 47.2875 47.2728 47.311 47.6497L47.8101 47.6185ZM47.8437 46.6207L48.3422 46.6584C48.39 46.026 48.4297 45.353 48.0779 44.7805L47.6519 45.0423L47.2259 45.304C47.3825 45.5588 47.3968 45.899 47.3451 46.5831L47.8437 46.6207ZM47.6519 45.0423L48.0439 44.7318C47.7631 44.3773 47.3523 44.1974 46.9181 44.0931L46.8014 44.5793L46.6847 45.0655C47.0209 45.1462 47.179 45.2505 47.26 45.3527L47.6519 45.0423ZM46.8014 44.5793L46.9181 44.0931C46.4811 43.9882 46.0024 43.9563 45.6273 43.9007L45.5541 44.3954L45.4809 44.89C45.9844 44.9645 46.2972 44.9725 46.6847 45.0655L46.8014 44.5793ZM45.5541 44.3954L45.6272 43.9007C44.7194 43.7665 43.8014 43.5113 42.9524 43.1627L42.7625 43.6252L42.5725 44.0878C43.4946 44.4664 44.491 44.7436 45.481 44.89L45.5541 44.3954ZM42.7625 43.6252L42.9524 43.1627C42.0062 42.7742 41.3729 42.621 40.8443 42.7428L40.9565 43.2301L41.0688 43.7173C41.2588 43.6735 41.624 43.6983 42.5725 44.0878L42.7625 43.6252ZM40.9565 43.2301L40.8441 42.7429C40.3136 42.8653 39.9025 43.2617 39.3897 43.9185L39.7838 44.2262L40.1779 44.5339C40.6878 43.8809 40.9109 43.7537 41.0689 43.7173L40.9565 43.2301ZM39.7838 44.2262L39.3898 43.9183C38.9076 44.5352 38.2205 45.0696 37.6245 45.2212L37.7477 45.7058L37.871 46.1904C38.7618 45.9638 39.6208 45.2466 40.1777 44.5341L39.7838 44.2262ZM37.7477 45.7058L37.6246 45.2212C37.3274 45.2967 37.0605 45.275 36.8512 45.1327L36.57 45.5461L36.2889 45.9596C36.8136 46.3164 37.4041 46.309 37.8709 46.1904L37.7477 45.7058ZM36.57 45.5461L36.8513 45.1327C36.6416 44.9901 36.4755 44.7167 36.4 44.2586L35.9067 44.3399L35.4133 44.4212C35.5138 45.0308 35.7696 45.6063 36.2888 45.9595L36.57 45.5461ZM35.9067 44.3399L36.4 44.2587C36.3358 43.8685 36.4416 43.4717 36.65 43.0993L36.2137 42.8551L35.7773 42.611C35.4967 43.1125 35.3012 43.7406 35.4133 44.4212L35.9067 44.3399ZM36.2137 42.8551L36.65 43.0994C36.858 42.7278 37.1666 42.384 37.5014 42.1013L37.1788 41.7193L36.8562 41.3373C36.455 41.6761 36.0583 42.1091 35.7774 42.6109L36.2137 42.8551ZM37.1788 41.7193L37.5013 42.1013C37.7526 41.8892 38.0096 41.7026 38.2514 41.5166L37.9465 41.1203L37.6416 40.724C37.4276 40.8886 37.1305 41.1056 36.8562 41.3372L37.1788 41.7193ZM37.9465 41.1203L38.2514 41.5165C38.4926 41.3309 38.7162 41.147 38.896 40.9458L38.5233 40.6125L38.1506 40.2792C38.0363 40.4071 37.8752 40.5442 37.6416 40.724L37.9465 41.1203ZM38.5233 40.6125L38.8961 40.9457C39.0768 40.7436 39.215 40.521 39.2804 40.2577L38.7952 40.1371L38.3099 40.0165C38.2943 40.0794 38.2563 40.161 38.1505 40.2793L38.5233 40.6125ZM38.7952 40.1371L39.2805 40.2574C39.3288 40.0622 39.3376 39.8435 39.2937 39.5939L38.8012 39.6806L38.3088 39.7673C38.3308 39.8923 38.3216 39.9692 38.3098 40.0168L38.7952 40.1371ZM38.8012 39.6806L39.2875 39.564L39.2391 39.3623L38.7529 39.4789L38.2667 39.5954L38.315 39.7972L38.8012 39.6806ZM38.7529 39.4789L39.2327 39.3381C38.8485 38.0287 38.1557 36.7736 37.5896 35.5155L37.1337 35.7206L36.6777 35.9258C37.2918 37.2906 37.9145 38.3974 38.2731 39.6196L38.7529 39.4789ZM37.1337 35.7206L37.5896 35.5155C37.0214 34.2525 36.5767 32.9778 36.6684 31.6081L36.1696 31.5747L35.6707 31.5413C35.5619 33.1663 36.0941 34.6288 36.6777 35.9258L37.1337 35.7206ZM36.1696 31.5747L36.6684 31.6082C36.8483 28.9244 38.6898 26.6099 41.5413 26.6926L41.5558 26.1928L41.5703 25.693C38.0274 25.5902 35.8752 28.4897 35.6707 31.5413L36.1696 31.5747ZM47.1804 35.8621L47.3301 35.385C46.6709 35.1782 46.0858 35.4612 45.856 35.574L46.0762 36.0229L46.2965 36.4718C46.5256 36.3594 46.7828 36.2613 47.0307 36.3391L47.1804 35.8621ZM46.0762 36.0229L45.8551 35.5745C45.536 35.7318 45.1901 36.0064 44.862 36.3122C44.5267 36.6245 44.1819 36.9961 43.8639 37.3749C43.5457 37.7538 43.2489 38.1466 43.0111 38.5036C42.7801 38.8503 42.582 39.1968 42.4887 39.4756L42.9629 39.6343L43.4371 39.7929C43.4863 39.6458 43.622 39.3903 43.8434 39.058C44.0578 38.7361 44.3318 38.3728 44.6298 38.0178C44.928 37.6627 45.2448 37.3223 45.5437 37.0438C45.8496 36.7587 46.1104 36.5636 46.2974 36.4713L46.0762 36.0229ZM42.9629 39.6343L42.4887 39.4757C42.3631 39.8511 42.3957 40.1082 42.4181 40.2221L42.9087 40.1256L43.3993 40.029C43.3987 40.0263 43.3983 40.0241 43.3978 40.0193C43.3973 40.0138 43.3965 40.0024 43.3972 39.9851C43.3985 39.951 43.4056 39.887 43.4371 39.7929L42.9629 39.6343ZM42.9087 40.1256L42.4173 40.2179C42.5002 40.6593 42.7967 40.9501 43.0383 41.1384L43.3457 40.744L43.6531 40.3497C43.4754 40.2112 43.4151 40.113 43.4001 40.0333L42.9087 40.1256ZM43.3457 40.744L43.0385 41.1385C43.7075 41.6594 44.6437 41.9832 45.9626 42.1929L46.0411 41.6991L46.1197 41.2054C44.865 41.0059 44.1255 40.7175 43.6529 40.3495L43.3457 40.744ZM46.0411 41.6991L45.9635 42.1931C46.2524 42.2385 46.704 42.3104 47.2411 42.2957L47.2274 41.7959L47.2138 41.2961C46.777 41.308 46.4052 41.2502 46.1188 41.2052L46.0411 41.6991ZM47.2274 41.7959L47.2573 42.295C47.3621 42.2888 47.5349 42.2741 47.7257 42.1803C47.9165 42.0865 48.0833 41.9354 48.235 41.7243L47.8289 41.4325L47.4229 41.1407C47.3422 41.253 47.2937 41.2784 47.2845 41.2829C47.2753 41.2874 47.2636 41.2929 47.1976 41.2968L47.2274 41.7959ZM47.8289 41.4325L48.2361 41.7228C48.5128 41.3347 48.5533 40.9326 48.5742 40.7519L48.0774 40.6946L47.5807 40.6374C47.5606 40.8118 47.5364 40.9815 47.4218 41.1422L47.8289 41.4325ZM48.0774 40.6946L48.5741 40.7519C48.7062 39.6057 48.6729 39.8282 48.754 38.9537L48.2562 38.9075L47.7583 38.8613C47.6758 39.7502 47.7111 39.5059 47.5807 40.6374L48.0774 40.6946ZM48.2562 38.9075L48.7541 38.9534C48.8656 37.7454 48.7666 36.8329 48.2975 36.1572L47.8868 36.4424L47.476 36.7275C47.7362 37.1022 47.8644 37.7115 47.7583 38.8615L48.2562 38.9075ZM47.8868 36.4424L48.2971 36.1567C48.1811 35.99 47.8866 35.5591 47.3297 35.3849L47.1804 35.8621L47.0311 36.3393C47.2353 36.4032 47.3631 36.5653 47.4764 36.728L47.8868 36.4424ZM53.9958 33.3628L54.0799 32.87C53.8358 32.8283 53.0093 32.7726 52.2744 32.9254L52.3762 33.4149L52.478 33.9045C53.0676 33.7818 53.7655 33.8307 53.9116 33.8557L53.9958 33.3628ZM52.3762 33.4149L52.2742 32.9254C51.9931 32.984 51.5692 33.0907 51.133 33.2477C50.7048 33.4019 50.2252 33.6183 49.8619 33.9112L50.1758 34.3004L50.4896 34.6897C50.7241 34.5006 51.081 34.3293 51.4717 34.1886C51.8545 34.0508 52.2319 33.9557 52.4782 33.9044L52.3762 33.4149ZM50.1758 34.3004L49.8627 33.9106C49.8541 33.9175 49.8439 33.9253 49.8278 33.9374C49.8136 33.948 49.7924 33.9638 49.7714 33.9803C49.7289 34.0136 49.6683 34.0641 49.6102 34.1328C49.4761 34.2915 49.4006 34.4935 49.4084 34.7392L49.9082 34.7232L50.4079 34.7073C50.4076 34.6963 50.4094 34.7063 50.4019 34.7279C50.3942 34.7506 50.3823 34.7684 50.3739 34.7784C50.3681 34.7853 50.368 34.7833 50.3886 34.7671C50.3992 34.7588 50.4102 34.7505 50.4282 34.737C50.4443 34.725 50.4662 34.7085 50.4888 34.6903L50.1758 34.3004ZM49.9082 34.7232L49.4084 34.737C49.4135 34.9233 49.4843 35.0592 49.5423 35.1459C49.5657 35.1809 49.5941 35.2175 49.6006 35.2261C49.6126 35.2422 49.6096 35.2393 49.6041 35.2295L50.0401 34.9847L50.476 34.7399C50.4472 34.6885 50.4164 34.6472 50.3999 34.6252C50.3956 34.6195 50.3912 34.6137 50.388 34.6095C50.3845 34.6049 50.3819 34.6015 50.3796 34.5984C50.3774 34.5954 50.3759 34.5933 50.3748 34.5918C50.3738 34.5904 50.3734 34.5898 50.3734 34.5898C50.3735 34.5899 50.3828 34.6038 50.3917 34.6274C50.4014 34.6531 50.4072 34.6815 50.408 34.7095L49.9082 34.7232ZM50.0401 34.9847L49.6237 35.2615C50.0817 35.9506 50.6611 37.0305 50.911 38.4442L51.4034 38.3571L51.8958 38.2701C51.6149 36.6813 50.9648 35.4727 50.4565 34.7079L50.0401 34.9847ZM51.4034 38.3571L50.9111 38.4443C50.9335 38.5712 50.9472 38.7196 50.9634 38.8981C50.9787 39.0662 50.9964 39.2623 51.0292 39.4446C51.0611 39.6213 51.115 39.8349 51.2292 40.02C51.3553 40.2244 51.5633 40.4039 51.8667 40.4447L51.9333 39.9492L51.9999 39.4537C52.0534 39.4608 52.0837 39.5005 52.0804 39.4951C52.0651 39.4704 52.038 39.4041 52.0134 39.2672C51.9897 39.1358 51.9754 38.9845 51.9593 38.8076C51.9441 38.641 51.9271 38.4469 51.8957 38.2699L51.4034 38.3571ZM51.9333 39.9492L51.8667 40.4447C52.2467 40.4958 52.5891 40.3062 52.8846 40.1057C53.199 39.8925 53.6033 39.5611 54.132 39.1333L53.8175 38.7446L53.503 38.3559C52.9534 38.8006 52.5929 39.0953 52.3233 39.2781C52.0349 39.4737 51.9743 39.4502 51.9999 39.4536L51.9333 39.9492ZM53.8175 38.7446L54.1322 39.1331C55.2617 38.2183 55.6246 37.7983 55.9381 37.3362L55.5244 37.0555L55.1106 36.7747C54.8734 37.1244 54.5924 37.4735 53.5028 38.356L53.8175 38.7446ZM55.5244 37.0555L55.9383 37.336C56.2455 36.8827 56.3599 36.4494 56.407 36.3085L55.9327 36.1502L55.4584 35.9919C55.3959 36.1791 55.3235 36.4606 55.1105 36.775L55.5244 37.0555ZM55.9327 36.1502L56.4065 36.31C56.6063 35.7176 56.6326 34.716 55.7081 33.7317L55.3436 34.074L54.9792 34.4163C55.622 35.1007 55.5552 35.705 55.4589 35.9904L55.9327 36.1502ZM55.3436 34.074L55.7077 33.7313C55.0824 33.0669 54.3084 32.9082 54.0784 32.8697L53.9958 33.3628L53.9132 33.856C54.0679 33.8819 54.5786 33.9907 54.9796 34.4167L55.3436 34.074ZM43.2787 30.1081L43.5071 29.6633C43.2997 29.5568 42.5858 29.2209 41.6854 29.3784L41.7716 29.871L41.8578 30.3635C42.4363 30.2622 42.9098 30.4807 43.0503 30.5529L43.2787 30.1081ZM41.7716 29.871L41.6856 29.3784C40.3529 29.611 39.7699 30.4247 39.5702 31.0171L40.0441 31.1768L40.5179 31.3365C40.6146 31.0496 40.9273 30.5258 41.8575 30.3635L41.7716 29.871ZM40.0441 31.1768L39.5704 31.0168C39.5229 31.1572 39.3521 31.5718 39.3221 32.1173L39.8213 32.1448L40.3206 32.1723C40.3414 31.7935 40.454 31.5255 40.5178 31.3368L40.0441 31.1768ZM39.8213 32.1448L39.322 32.119C39.2932 32.6761 39.3283 33.2279 39.6781 34.6352L40.1634 34.5146L40.6486 34.3939C40.3114 33.0378 40.2989 32.592 40.3207 32.1706L39.8213 32.1448ZM40.1634 34.5146L39.6781 34.6349C39.841 35.2919 39.9631 35.7986 40.0849 36.1569C40.1994 36.4939 40.3586 36.8521 40.695 37.0392L40.9381 36.6023L41.1812 36.1654C41.2052 36.1788 41.1433 36.1634 41.0317 35.835C40.9273 35.5281 40.8182 35.0777 40.6487 34.3942L40.1634 34.5146ZM40.9381 36.6023L40.6953 37.0394C40.9626 37.1879 41.2365 37.1684 41.4593 37.0811C41.6616 37.0019 41.8335 36.8642 41.9659 36.7422C42.1024 36.6164 42.2352 36.4705 42.3493 36.3453C42.4703 36.2125 42.5712 36.1019 42.6661 36.0138L42.326 35.6473L41.9859 35.2808C41.854 35.4033 41.723 35.5479 41.6101 35.6719C41.4902 35.8035 41.387 35.9159 41.2883 36.0068C41.1855 36.1015 41.123 36.1389 41.0947 36.15C41.0868 36.1531 41.1338 36.139 41.1809 36.1652L40.9381 36.6023ZM42.326 35.6473L42.6661 36.0138C43.7231 35.0327 44.8402 34.5152 45.6237 34.2374L45.4566 33.7661L45.2896 33.2948C44.4214 33.6027 43.1719 34.18 41.9858 35.2809L42.326 35.6473ZM45.4566 33.7661L45.6563 34.2245C45.6455 34.2292 45.641 34.2297 45.6603 34.2243C45.6706 34.2214 45.7154 34.2094 45.7553 34.1958C45.8538 34.1619 45.9934 34.0965 46.1106 33.9504L45.7206 33.6375L45.3306 33.3246C45.3483 33.3025 45.3704 33.2832 45.3937 33.2686C45.4045 33.2618 45.4138 33.2571 45.4204 33.2541C45.4269 33.2512 45.4309 33.2498 45.4309 33.2498C45.431 33.2498 45.4302 33.25 45.4285 33.2506C45.4267 33.2511 45.4242 33.2519 45.4206 33.2529C45.4168 33.254 45.4127 33.2552 45.407 33.2567C45.402 33.2582 45.3949 33.2601 45.3879 33.2621C45.3613 33.2696 45.3114 33.284 45.257 33.3077L45.4566 33.7661ZM45.7206 33.6375L46.1101 33.951C46.2641 33.7597 46.3257 33.5535 46.3146 33.3463C46.3098 33.2566 46.292 33.18 46.2784 33.1281C46.2557 33.0414 46.2613 33.0711 46.2485 33.0191L45.763 33.1387L45.2775 33.2582C45.2845 33.2868 45.292 33.3133 45.2976 33.3329C45.3038 33.3549 45.3075 33.368 45.311 33.3813C45.3177 33.407 45.3165 33.4086 45.316 33.3997C45.3153 33.3867 45.3166 33.3655 45.324 33.343C45.3311 33.3215 45.3383 33.315 45.3311 33.324L45.7206 33.6375ZM45.763 33.1387L46.248 33.0171C46.1348 32.5655 45.8823 32.1054 45.6335 31.7263C45.38 31.3401 45.1059 31.0014 44.9169 30.7867L44.5416 31.1171L44.1664 31.4476C44.3317 31.6353 44.5753 31.9365 44.7974 32.275C45.0243 32.6207 45.2053 32.9702 45.278 33.2603L45.763 33.1387ZM44.5416 31.1171L44.9168 30.7866C44.4209 30.2238 43.7256 29.7748 43.506 29.6627L43.2787 30.1081L43.0515 30.5535C43.1826 30.6204 43.7698 30.9975 44.1665 31.4477L44.5416 31.1171Z" fill="black"/>
<path fill-rule="evenodd" clip-rule="evenodd" d="M42.9077 40.1249C42.8983 40.0774 42.8698 39.911 42.9626 39.6338C43.2476 38.782 45.0629 36.5223 46.0751 36.0231C46.3045 35.9106 46.7254 35.7198 47.1792 35.8622C47.56 35.9812 47.7713 36.2776 47.8859 36.4423C48.2506 36.9676 48.3638 37.7283 48.2549 38.9075C48.1731 39.7893 48.208 39.5555 48.0768 40.6944C48.0563 40.872 48.0241 41.1575 47.8285 41.4319C47.5959 41.7557 47.3975 41.7853 47.2265 41.7955C46.7394 41.8088 46.3278 41.7445 46.0401 41.6993C44.7531 41.4946 43.9155 41.1881 43.3447 40.7435C43.135 40.58 42.9565 40.3857 42.9077 40.1249Z" stroke="#222222"/>
<path fill-rule="evenodd" clip-rule="evenodd" d="M53.9951 33.3625C54.1874 33.3947 54.83 33.5285 55.3433 34.0741C56.1269 34.9084 56.08 35.7107 55.932 36.1496C55.8772 36.3136 55.784 36.6713 55.5236 37.0554C55.2482 37.4613 54.9267 37.846 53.817 38.7448C52.7387 39.6174 52.2876 39.9971 51.9331 39.9494C51.4329 39.8827 51.5105 38.9653 51.4028 38.3574C51.1375 36.8558 50.5227 35.7114 50.0394 34.9843C49.9928 34.9012 49.911 34.8431 49.9078 34.7227C49.8999 34.4719 50.0505 34.4008 50.1757 34.3001C50.7734 33.8181 51.8481 33.5242 52.3755 33.4143C53.0378 33.2766 53.8 33.3291 53.9951 33.3625Z" stroke="#222222"/>
<path fill-rule="evenodd" clip-rule="evenodd" d="M42.3255 35.6458C43.4471 34.6047 44.6308 34.0581 45.4567 33.7653C45.544 33.7273 45.6446 33.7299 45.72 33.6358C45.8779 33.4397 45.8007 33.2928 45.7624 33.137C45.5765 32.3954 44.8959 31.5184 44.5416 31.1161C44.0953 30.6095 43.4539 30.1963 43.2785 30.1068C43.1046 30.0174 42.5109 29.7404 41.7714 29.8699C40.6398 30.0673 40.1914 30.7358 40.0433 31.1755C39.9877 31.3401 39.8462 31.6815 39.8208 32.1439C39.7955 32.6331 39.8194 33.1313 40.1629 34.513C40.4955 35.8538 40.6252 36.4275 40.9375 36.6013C41.3781 36.8462 41.8717 36.0668 42.3255 35.6458Z" stroke="#222222"/>
<line x1="49.4328" y1="42.4056" x2="50.4248" y2="41.6518" stroke="black"/>
<line x1="40.8893" y1="38.573" x2="41.6431" y2="39.5649" stroke="black"/>
<line x1="46.8674" y1="31.2385" x2="47.7403" y2="31.3575" stroke="black"/>
<line x1="57.9744" y1="37.1715" x2="56.9824" y2="37.9253" stroke="black"/>
<path fill-rule="evenodd" clip-rule="evenodd" d="M4.34099 13.8577C5.87432 12.8763 7.24319 12.3074 9.09654 12.1589C10.0391 12.0833 10.9573 12.26 11.8036 12.4745C12.6868 12.6984 13.4349 12.9444 14.2078 13.0865C15.1133 13.2524 15.7242 13.1279 16.2217 12.8465C16.7471 12.5491 17.2084 12.0446 17.7523 11.323C19.2498 9.33636 21.4975 8.17613 23.9007 7.81583C27.3779 7.29642 30.8285 8.63684 32.4107 12.0371C33.9996 15.4516 32.6876 18.6329 30.8227 22.4974C30.6118 22.9346 30.3665 23.3106 30.1358 23.6424C29.8951 23.9886 29.6942 24.2548 29.5167 24.5386C29.1873 25.0652 29.0345 25.5067 29.174 26.111C29.3304 26.7868 29.7549 27.391 30.2778 28.1217C30.7726 28.8129 31.3593 29.624 31.5857 30.6002C31.7744 31.4116 31.7467 32.4282 31.3515 33.1772C31.1466 33.5653 30.8226 33.9149 30.3502 34.0796C29.878 34.2441 29.3503 34.1907 28.8052 33.9623C28.3165 33.7573 27.9567 33.4118 27.6725 33.0465C27.3938 32.6881 27.1589 32.2711 26.948 31.9052C26.5023 31.1322 26.1312 30.5547 25.5329 30.2856C25.1561 30.1673 24.7286 30.2264 24.2265 30.417C23.6902 30.6206 23.2323 30.9 22.6917 31.1622C21.6697 31.658 20.5665 32.0505 19.4577 32.321L18.5072 32.5378C17.4752 32.789 16.9591 33.044 16.6627 33.3645C16.3787 33.6719 16.2237 34.1192 16.1409 34.9782L16.1096 35.3726C16.0356 36.512 15.6487 37.8007 14.9617 38.5791C14.6086 38.979 14.1241 39.2981 13.5234 39.299C12.9268 39.2998 12.3672 38.986 11.8618 38.4562L11.6847 38.2499C11.3016 37.7532 11.1251 37.1532 11.0728 36.5624C11.013 35.8873 11.111 35.1833 11.2856 34.5549C11.4103 34.1064 11.5655 33.6702 11.6866 33.3005C11.8129 32.915 11.9069 32.5898 11.9459 32.2935C11.984 32.0051 11.9662 31.7679 11.8871 31.5546C11.8086 31.3429 11.6517 31.1076 11.3382 30.8506L11.3378 30.8497C9.95746 29.7176 8.32093 28.8989 6.6613 27.8825C5.04149 26.8904 3.45133 25.733 2.42181 23.9824C0.450171 20.6292 0.695312 16.1918 4.34099 13.8577ZM18.0023 20.3814C17.3869 20.5682 17.0616 21.1013 16.8909 21.4021C16.1398 22.7319 15.8327 26.6425 16.1633 27.8128C16.2708 28.1931 16.4291 28.3581 16.476 28.4044C16.7294 28.6587 17.0774 28.7403 17.4366 28.7632C18.4138 28.8251 19.5846 28.5284 21.1797 27.7759C21.5358 27.6071 22.0452 27.3652 22.5796 26.9791C22.7629 26.8373 22.9619 26.653 22.975 26.1138C22.9846 25.6578 22.8031 25.3141 22.6906 25.0999C21.969 23.7264 22.1081 24.0143 21.5274 22.966C20.7502 21.5647 20.0436 20.8001 19.2356 20.4907C18.9818 20.3939 18.519 20.2241 18.0023 20.3814ZM23.7177 12.3896C23.4737 12.5014 22.5815 13.0232 21.9462 13.6819C21.4403 14.2069 20.4628 15.3556 20.1619 16.3503C20.0986 16.5582 19.985 16.7522 20.185 17.0263C20.2804 17.1586 20.4156 17.1618 20.5312 17.2192C21.6259 17.6636 23.1858 18.4744 24.6274 19.951C25.2114 20.5487 25.8246 21.6335 26.4349 21.3267C26.8674 21.1096 27.0824 20.3409 27.6227 18.5435C28.1783 16.6923 28.2442 16.0166 28.2427 15.3527C28.2409 14.7249 28.0725 14.2539 28.0087 14.0288C27.8395 13.4251 27.2803 12.492 25.7679 12.1566C24.778 11.938 23.9573 12.279 23.7177 12.3896ZM9.2528 16.9203C8.99023 16.953 8.1155 17.097 7.38729 17.8055C6.27251 18.889 6.28013 19.9782 6.44973 20.5828C6.51303 20.8092 6.61528 21.2986 6.93924 21.8349C7.28397 22.4012 7.69131 22.9405 9.12896 24.2237C10.5228 25.4691 11.1056 26.0115 11.5873 25.9677C12.2662 25.9052 12.2237 24.6581 12.41 23.8414C12.8703 21.8221 13.7776 20.3078 14.4778 19.3507C14.5465 19.2417 14.6607 19.1679 14.6733 19.0054C14.7003 18.6658 14.5021 18.5601 14.3405 18.4151C13.5671 17.7277 12.1375 17.2664 11.4346 17.0866C10.5496 16.8605 9.51764 16.8867 9.2528 16.9203Z" fill="#E6A65D"/>
<path d="M4.34099 13.8577L4.07144 13.4366L4.0714 13.4366L4.34099 13.8577ZM9.09654 12.1589L9.13646 12.6573L9.13651 12.6573L9.09654 12.1589ZM11.8036 12.4745L11.9265 11.9899L11.9265 11.9899L11.8036 12.4745ZM14.2078 13.0865L14.1174 13.5782L14.1177 13.5783L14.2078 13.0865ZM16.2217 12.8465L16.4679 13.2817L16.468 13.2816L16.2217 12.8465ZM17.7523 11.323L18.1516 11.6239L18.1516 11.6239L17.7523 11.323ZM23.9007 7.81583L23.8268 7.32132L23.8265 7.32136L23.9007 7.81583ZM32.4107 12.0371L31.9574 12.2481L31.9574 12.2481L32.4107 12.0371ZM30.8227 22.4974L30.3724 22.2801L30.3724 22.2801L30.8227 22.4974ZM30.1358 23.6424L30.5463 23.9279L30.5463 23.9279L30.1358 23.6424ZM29.5167 24.5386L29.0928 24.2734L29.0928 24.2734L29.5167 24.5386ZM29.174 26.111L28.6868 26.2235L28.6869 26.2237L29.174 26.111ZM30.2778 28.1217L29.8713 28.4127V28.4127L30.2778 28.1217ZM31.5857 30.6002L31.0987 30.7132L31.0987 30.7135L31.5857 30.6002ZM31.3515 33.1772L31.7936 33.4107L31.7937 33.4106L31.3515 33.1772ZM30.3502 34.0796L30.5146 34.5518L30.5149 34.5517L30.3502 34.0796ZM28.8052 33.9623L28.6118 34.4234L28.612 34.4235L28.8052 33.9623ZM27.6725 33.0465L27.2779 33.3535L27.2779 33.3535L27.6725 33.0465ZM26.948 31.9052L27.3811 31.6555L27.3811 31.6555L26.948 31.9052ZM25.5329 30.2856L25.738 29.8296L25.7109 29.8175L25.6826 29.8086L25.5329 30.2856ZM24.2265 30.417L24.0491 29.9495L24.049 29.9495L24.2265 30.417ZM22.6917 31.1622L22.4735 30.7123L22.4735 30.7123L22.6917 31.1622ZM19.4577 32.321L19.5689 32.8086L19.5762 32.8068L19.4577 32.321ZM18.5072 32.5378L18.396 32.0503L18.389 32.052L18.5072 32.5378ZM16.6627 33.3645L16.2956 33.025L16.2955 33.0251L16.6627 33.3645ZM16.1409 34.9782L15.6431 34.9303L15.6425 34.9387L16.1409 34.9782ZM16.1096 35.3726L15.6111 35.333L15.6107 35.3402L16.1096 35.3726ZM14.9617 38.5791L15.3365 38.91L15.3365 38.91L14.9617 38.5791ZM13.5234 39.299L13.524 39.799L13.5242 39.799L13.5234 39.299ZM11.8618 38.4562L11.4825 38.782L11.491 38.7919L11.5 38.8014L11.8618 38.4562ZM11.6847 38.2499L11.2887 38.5553L11.2968 38.5657L11.3054 38.5757L11.6847 38.2499ZM11.0728 36.5624L10.5747 36.6064L10.5747 36.6065L11.0728 36.5624ZM11.2856 34.5549L10.8039 34.4209L10.8039 34.421L11.2856 34.5549ZM11.6866 33.3005L12.1618 33.4561L12.1618 33.4561L11.6866 33.3005ZM11.9459 32.2935L12.4416 32.3589L12.4416 32.3589L11.9459 32.2935ZM11.8871 31.5546L12.3559 31.3808L12.3559 31.3806L11.8871 31.5546ZM11.3382 30.8506L10.8908 31.0738L10.9385 31.1694L11.0212 31.2372L11.3382 30.8506ZM11.3378 30.8497L11.7852 30.6264L11.7375 30.5308L11.6549 30.4631L11.3378 30.8497ZM6.6613 27.8825L6.40015 28.3089L6.40016 28.3089L6.6613 27.8825ZM2.42181 23.9824L1.9908 24.2358L1.99082 24.2358L2.42181 23.9824ZM18.0023 20.3814L18.1475 20.8599L18.148 20.8597L18.0023 20.3814ZM16.8909 21.4021L16.4561 21.1553L16.4556 21.1562L16.8909 21.4021ZM16.1633 27.8128L15.6822 27.9487L15.6822 27.9488L16.1633 27.8128ZM16.476 28.4044L16.8303 28.0515L16.827 28.0483L16.476 28.4044ZM17.4366 28.7632L17.4047 29.2622L17.405 29.2622L17.4366 28.7632ZM21.1797 27.7759L21.393 28.2281L21.3938 28.2278L21.1797 27.7759ZM22.5796 26.9791L22.8724 27.3843L22.879 27.3796L22.8854 27.3746L22.5796 26.9791ZM22.975 26.1138L23.4749 26.126L23.4749 26.1242L22.975 26.1138ZM22.6906 25.0999L22.248 25.3325L22.248 25.3325L22.6906 25.0999ZM21.5274 22.966L21.9648 22.7237L21.9647 22.7235L21.5274 22.966ZM19.2356 20.4907L19.4144 20.0237L19.4136 20.0234L19.2356 20.4907ZM23.7177 12.3896L23.926 12.8441L23.9273 12.8435L23.7177 12.3896ZM21.9462 13.6819L21.5863 13.3348L21.5862 13.3349L21.9462 13.6819ZM20.1619 16.3503L20.6402 16.496L20.6405 16.495L20.1619 16.3503ZM20.185 17.0263L20.5906 16.7339L20.5889 16.7316L20.185 17.0263ZM20.5312 17.2192L20.3089 17.6671L20.3257 17.6754L20.3431 17.6825L20.5312 17.2192ZM24.6274 19.951L24.2697 20.3003L24.2698 20.3004L24.6274 19.951ZM26.4349 21.3267L26.2105 20.8799L26.2103 20.88L26.4349 21.3267ZM27.6227 18.5435L28.1016 18.6874L28.1016 18.6872L27.6227 18.5435ZM28.2427 15.3527L28.7427 15.3516L28.7427 15.3513L28.2427 15.3527ZM28.0087 14.0288L27.5272 14.1637L27.5276 14.1651L28.0087 14.0288ZM25.7679 12.1566L25.8762 11.6685L25.8757 11.6684L25.7679 12.1566ZM9.2528 16.9203L9.31468 17.4165L9.3158 17.4163L9.2528 16.9203ZM7.38729 17.8055L7.73579 18.164L7.73596 18.1638L7.38729 17.8055ZM6.44973 20.5828L6.93126 20.4482L6.93114 20.4478L6.44973 20.5828ZM6.93924 21.8349L6.51127 22.0934L6.51214 22.0948L6.93924 21.8349ZM9.12896 24.2237L9.46211 23.8508L9.4619 23.8506L9.12896 24.2237ZM11.5873 25.9677L11.6326 26.4656L11.6332 26.4655L11.5873 25.9677ZM12.41 23.8414L12.8975 23.9526L12.8975 23.9525L12.41 23.8414ZM14.4778 19.3507L14.8813 19.6459L14.8916 19.6319L14.9008 19.6173L14.4778 19.3507ZM14.6733 19.0054L14.1748 18.9658L14.1748 18.9669L14.6733 19.0054ZM14.3405 18.4151L14.6744 18.043L14.6727 18.0414L14.3405 18.4151ZM11.4346 17.0866L11.5585 16.6022L11.5583 16.6021L11.4346 17.0866ZM4.34099 13.8577L4.61055 14.2789C6.0932 13.3298 7.38412 12.7977 9.13646 12.6573L9.09654 12.1589L9.05661 11.6605C7.10226 11.8171 5.65544 12.4227 4.07144 13.4366L4.34099 13.8577ZM9.09654 12.1589L9.13651 12.6573C9.99543 12.5884 10.8492 12.7484 11.6808 12.9592L11.8036 12.4745L11.9265 11.9899C11.0654 11.7716 10.0828 11.5782 9.05657 11.6605L9.09654 12.1589ZM11.8036 12.4745L11.6807 12.9592C12.517 13.1712 13.3257 13.4327 14.1174 13.5782L14.2078 13.0865L14.2982 12.5947C13.5441 12.4561 12.8566 12.2257 11.9265 11.9899L11.8036 12.4745ZM14.2078 13.0865L14.1177 13.5783C15.1176 13.7615 15.8513 13.6304 16.4679 13.2817L16.2217 12.8465L15.9756 12.4113C15.597 12.6254 15.109 12.7433 14.2979 12.5946L14.2078 13.0865ZM16.2217 12.8465L16.468 13.2816C17.0892 12.9301 17.6024 12.3526 18.1516 11.6239L17.7523 11.323L17.3531 11.022C16.8144 11.7366 16.405 12.1682 15.9755 12.4113L16.2217 12.8465ZM17.7523 11.323L18.1516 11.6239C19.5579 9.75827 21.6794 8.65444 23.9748 8.31031L23.9007 7.81583L23.8265 7.32136C21.3155 7.69782 18.9417 8.91445 17.353 11.022L17.7523 11.323ZM23.9007 7.81583L23.9745 8.31035C27.2824 7.81623 30.4883 9.09089 31.9574 12.2481L32.4107 12.0371L32.864 11.8262C31.1687 8.18279 27.4734 6.77661 23.8268 7.32132L23.9007 7.81583ZM32.4107 12.0371L31.9574 12.2481C33.4338 15.4209 32.2504 18.3884 30.3724 22.2801L30.8227 22.4974L31.2731 22.7147C33.1248 18.8773 34.5654 15.4822 32.864 11.8262L32.4107 12.0371ZM30.8227 22.4974L30.3724 22.2801C30.1783 22.6825 29.9502 23.0335 29.7253 23.357L30.1358 23.6424L30.5463 23.9279C30.7829 23.5876 31.0453 23.1867 31.2731 22.7147L30.8227 22.4974ZM30.1358 23.6424L29.7253 23.357C29.4993 23.682 29.2786 23.9764 29.0928 24.2734L29.5167 24.5386L29.9406 24.8038C30.1099 24.5332 30.2908 24.2953 30.5463 23.9279L30.1358 23.6424ZM29.5167 24.5386L29.0928 24.2734C28.7244 24.8624 28.5064 25.4419 28.6868 26.2235L29.174 26.111L29.6612 25.9985C29.5626 25.5716 29.6502 25.268 29.9406 24.8038L29.5167 24.5386ZM29.174 26.111L28.6869 26.2237C28.8699 27.0147 29.3621 27.7014 29.8713 28.4127L30.2778 28.1217L30.6844 27.8307C30.1476 27.0807 29.7908 26.5589 29.6611 25.9983L29.174 26.111ZM30.2778 28.1217L29.8713 28.4127C30.376 29.1178 30.8984 29.8499 31.0987 30.7132L31.5857 30.6002L32.0728 30.4873C31.8202 29.3982 31.1693 28.5081 30.6844 27.8307L30.2778 28.1217ZM31.5857 30.6002L31.0987 30.7135C31.2698 31.4492 31.2312 32.3337 30.9093 32.9439L31.3515 33.1772L31.7937 33.4106C32.2622 32.5227 32.2789 31.3739 32.0728 30.487L31.5857 30.6002ZM31.3515 33.1772L30.9093 32.9438C30.7469 33.2514 30.5089 33.4947 30.1856 33.6075L30.3502 34.0796L30.5149 34.5517C31.1364 34.335 31.5463 33.8791 31.7936 33.4107L31.3515 33.1772ZM30.3502 34.0796L30.1858 33.6074C29.8623 33.7201 29.4658 33.697 28.9984 33.5011L28.8052 33.9623L28.612 34.4235C29.2348 34.6844 29.8936 34.7681 30.5146 34.5518L30.3502 34.0796ZM28.8052 33.9623L28.9986 33.5012C28.6169 33.3412 28.321 33.0657 28.0672 32.7395L27.6725 33.0465L27.2779 33.3535C27.5925 33.7579 28.016 34.1735 28.6118 34.4234L28.8052 33.9623ZM27.6725 33.0465L28.0672 32.7395C27.8143 32.4144 27.5979 32.0314 27.3811 31.6555L26.948 31.9052L26.5148 32.155C26.72 32.5108 26.9733 32.9619 27.2779 33.3535L27.6725 33.0465ZM26.948 31.9052L27.3811 31.6555C26.9489 30.9058 26.5063 30.1752 25.738 29.8296L25.5329 30.2856L25.3278 30.7416C25.756 30.9342 26.0556 31.3585 26.5148 32.155L26.948 31.9052ZM25.5329 30.2856L25.6826 29.8086C25.1511 29.6417 24.5971 29.7415 24.0491 29.9495L24.2265 30.417L24.4039 30.8844C24.86 30.7113 25.161 30.6929 25.3831 30.7627L25.5329 30.2856ZM24.2265 30.417L24.049 29.9495C23.4889 30.1622 22.9558 30.4784 22.4735 30.7123L22.6917 31.1622L22.9099 31.6121C23.5087 31.3216 23.8916 31.079 24.404 30.8844L24.2265 30.417ZM22.6917 31.1622L22.4735 30.7123C21.4845 31.1921 20.4148 31.5729 19.3392 31.8353L19.4577 32.321L19.5762 32.8068C20.7181 32.5282 21.8548 32.1239 22.91 31.612L22.6917 31.1622ZM19.4577 32.321L19.3465 31.8335L18.396 32.0503L18.5072 32.5378L18.6184 33.0253L19.5689 32.8085L19.4577 32.321ZM18.5072 32.5378L18.389 32.052C17.3419 32.3069 16.6987 32.5891 16.2956 33.025L16.6627 33.3645L17.0298 33.704C17.2194 33.4989 17.6085 33.2712 18.6255 33.0236L18.5072 32.5378ZM16.6627 33.3645L16.2955 33.0251C15.8955 33.4581 15.7284 34.0462 15.6432 34.9303L16.1409 34.9782L16.6386 35.0262C16.7189 34.1923 16.8619 33.8857 17.03 33.7038L16.6627 33.3645ZM16.1409 34.9782L15.6425 34.9387L15.6112 35.333L16.1096 35.3726L16.608 35.4121L16.6393 35.0178L16.1409 34.9782ZM16.1096 35.3726L15.6107 35.3402C15.5406 36.4191 15.1732 37.5839 14.5868 38.2482L14.9617 38.5791L15.3365 38.91C16.1243 38.0176 16.5306 36.6049 16.6086 35.405L16.1096 35.3726ZM14.9617 38.5791L14.5868 38.2482C14.2915 38.5827 13.9325 38.7984 13.5226 38.799L13.5234 39.299L13.5242 39.799C14.3157 39.7978 14.9256 39.3754 15.3365 38.91L14.9617 38.5791ZM13.5234 39.299L13.5228 38.799C13.1134 38.7996 12.676 38.5853 12.2236 38.1111L11.8618 38.4562L11.5 38.8014C12.0584 39.3866 12.7402 39.8 13.524 39.799L13.5234 39.299ZM11.8618 38.4562L12.2411 38.1304L12.064 37.9242L11.6847 38.2499L11.3054 38.5757L11.4825 38.782L11.8618 38.4562ZM11.6847 38.2499L12.0806 37.9446C11.7719 37.5443 11.6174 37.0442 11.5708 36.5183L11.0728 36.5624L10.5747 36.6065C10.6328 37.2622 10.8313 37.9622 11.2887 38.5553L11.6847 38.2499ZM11.0728 36.5624L11.5708 36.5183C11.5176 35.9174 11.6044 35.2751 11.7674 34.6888L11.2856 34.5549L10.8039 34.421C10.6175 35.0915 10.5084 35.8571 10.5747 36.6064L11.0728 36.5624ZM11.2856 34.5549L11.7674 34.6888C11.888 34.2549 12.0354 33.8418 12.1618 33.4561L11.6866 33.3005L11.2115 33.1448C11.0956 33.4985 10.9327 33.958 10.8039 34.4209L11.2856 34.5549ZM11.6866 33.3005L12.1618 33.4561C12.2889 33.0681 12.396 32.7048 12.4416 32.3589L11.9459 32.2935L11.4502 32.2282C11.4177 32.4747 11.3369 32.762 11.2115 33.1448L11.6866 33.3005ZM11.9459 32.2935L12.4416 32.3589C12.4871 32.0142 12.4708 31.6907 12.3559 31.3808L11.8871 31.5546L11.4183 31.7283C11.4616 31.8452 11.4808 31.996 11.4502 32.2282L11.9459 32.2935ZM11.8871 31.5546L12.3559 31.3806C12.2408 31.0706 12.0234 30.7658 11.6553 30.4639L11.3382 30.8506L11.0212 31.2372C11.2799 31.4494 11.3763 31.6152 11.4183 31.7285L11.8871 31.5546ZM11.3382 30.8506L11.7856 30.6273L11.7852 30.6264L11.3378 30.8497L10.8904 31.073L10.8908 31.0738L11.3382 30.8506ZM11.3378 30.8497L11.6549 30.4631C10.2394 29.3022 8.53199 28.4419 6.92243 27.4561L6.6613 27.8825L6.40016 28.3089C8.10987 29.356 9.67553 30.133 11.0207 31.2363L11.3378 30.8497ZM6.6613 27.8825L6.92244 27.4561C5.31844 26.4737 3.81743 25.3692 2.85281 23.7289L2.42181 23.9824L1.99082 24.2358C3.08524 26.0968 4.76454 27.3071 6.40015 28.3089L6.6613 27.8825ZM2.42181 23.9824L2.85282 23.7289C0.97464 20.5347 1.25615 16.4265 4.61059 14.2788L4.34099 13.8577L4.0714 13.4366C0.134472 15.9572 -0.0742981 20.7237 1.9908 24.2358L2.42181 23.9824ZM18.0023 20.3814L17.8571 19.903C17.0357 20.1522 16.6272 20.8538 16.4561 21.1553L16.8909 21.4021L17.3258 21.6489C17.4961 21.3488 17.7381 20.9841 18.1475 20.8599L18.0023 20.3814ZM16.8909 21.4021L16.4556 21.1562C16.2316 21.5528 16.0588 22.1033 15.9262 22.69C15.7914 23.2861 15.6902 23.957 15.624 24.6174C15.5577 25.2781 15.5257 25.9368 15.5319 26.5098C15.538 27.0705 15.5807 27.5894 15.6822 27.9487L16.1633 27.8128L16.6445 27.6769C16.5807 27.451 16.5378 27.0423 16.5319 26.499C16.5261 25.9681 16.5559 25.3466 16.619 24.7171C16.6821 24.0874 16.7778 23.4581 16.9016 22.9104C17.0275 22.3534 17.1747 21.9163 17.3263 21.648L16.8909 21.4021ZM16.1633 27.8128L15.6822 27.9488C15.8173 28.4269 16.0281 28.6649 16.125 28.7604L16.476 28.4044L16.827 28.0483C16.8229 28.0442 16.7994 28.0218 16.7669 27.9696C16.7332 27.9156 16.6857 27.8225 16.6445 27.6768L16.1633 27.8128ZM16.476 28.4044L16.1218 28.7572C16.5051 29.142 17.0051 29.2367 17.4047 29.2622L17.4366 28.7632L17.4684 28.2642C17.1498 28.2439 16.9537 28.1754 16.8302 28.0515L16.476 28.4044ZM17.4366 28.7632L17.405 29.2622C18.5064 29.3319 19.7685 28.9945 21.393 28.2281L21.1797 27.7759L20.9663 27.3237C19.4007 28.0623 18.3212 28.3182 17.4682 28.2642L17.4366 28.7632ZM21.1797 27.7759L21.3938 28.2278C21.7516 28.0582 22.2976 27.7997 22.8724 27.3843L22.5796 26.9791L22.2867 26.5738C21.7928 26.9308 21.3201 27.1561 20.9655 27.3241L21.1797 27.7759ZM22.5796 26.9791L22.8854 27.3746C22.9923 27.292 23.1519 27.1613 23.2762 26.9419C23.4004 26.7226 23.4668 26.4564 23.4749 26.126L22.975 26.1138L22.4752 26.1016C22.4701 26.3104 22.4304 26.406 22.406 26.4491C22.3816 26.4921 22.3502 26.5244 22.2737 26.5836L22.5796 26.9791ZM22.975 26.1138L23.4749 26.1242C23.4874 25.5287 23.2473 25.0844 23.1332 24.8673L22.6906 25.0999L22.248 25.3325C22.359 25.5437 22.4817 25.7869 22.4751 26.1033L22.975 26.1138ZM22.6906 25.0999L23.1332 24.8674C22.4082 23.4874 22.5416 23.7648 21.9648 22.7237L21.5274 22.966L21.0901 23.2083C21.6747 24.2637 21.5298 23.9655 22.248 25.3325L22.6906 25.0999ZM21.5274 22.966L21.9647 22.7235C21.1734 21.297 20.3936 20.3987 19.4144 20.0237L19.2356 20.4907L19.0568 20.9576C19.6937 21.2015 20.3269 21.8324 21.0902 23.2086L21.5274 22.966ZM19.2356 20.4907L19.4136 20.0234C19.1566 19.9255 18.5497 19.6921 17.8567 19.9031L18.0023 20.3814L18.148 20.8597C18.4882 20.7562 18.8069 20.8624 19.0575 20.9579L19.2356 20.4907ZM23.7177 12.3896L23.5094 11.935C23.2207 12.0673 22.2734 12.6224 21.5863 13.3348L21.9462 13.6819L22.3061 14.029C22.8897 13.4239 23.7266 12.9355 23.926 12.8441L23.7177 12.3896ZM21.9462 13.6819L21.5862 13.3349C21.3208 13.6103 20.934 14.0467 20.5721 14.5469C20.2152 15.0401 19.8577 15.6291 19.6833 16.2055L20.1619 16.3503L20.6405 16.495C20.7671 16.0767 21.0487 15.5941 21.3823 15.1331C21.7109 14.6789 22.0658 14.2784 22.3063 14.0288L21.9462 13.6819ZM20.1619 16.3503L19.6836 16.2046C19.6783 16.2219 19.672 16.2407 19.6633 16.2664C19.6553 16.2898 19.6444 16.3216 19.6342 16.3537C19.6136 16.4185 19.5882 16.508 19.5774 16.6117C19.5529 16.847 19.6102 17.0869 19.7811 17.321L20.185 17.0263L20.5889 16.7316C20.5693 16.7047 20.5685 16.6954 20.5703 16.7018C20.5723 16.7094 20.5719 16.7162 20.572 16.7152C20.5726 16.7101 20.575 16.695 20.5872 16.6564C20.5935 16.6368 20.6002 16.6172 20.6098 16.5891C20.6186 16.5633 20.6297 16.5306 20.6402 16.496L20.1619 16.3503ZM20.185 17.0263L19.7795 17.3188C19.9003 17.4863 20.0491 17.568 20.1619 17.6139C20.2091 17.6331 20.2607 17.65 20.2795 17.6564C20.3067 17.6657 20.3109 17.6681 20.3089 17.6671L20.5312 17.2192L20.7535 16.7713C20.6937 16.7417 20.6376 16.7221 20.604 16.7105C20.5619 16.6961 20.5521 16.6931 20.5391 16.6878C20.5316 16.6847 20.5393 16.6871 20.5525 16.6964C20.5673 16.707 20.5808 16.7204 20.5905 16.7339L20.185 17.0263ZM20.5312 17.2192L20.3431 17.6825C21.3957 18.1098 22.8902 18.8874 24.2697 20.3003L24.6274 19.951L24.9852 19.6017C23.4815 18.0615 21.8561 17.2175 20.7193 16.7559L20.5312 17.2192ZM24.6274 19.951L24.2698 20.3004C24.398 20.4317 24.5316 20.5936 24.6846 20.7792C24.8309 20.9568 24.9954 21.1565 25.1649 21.3287C25.3304 21.4969 25.5351 21.6757 25.7737 21.782C26.0331 21.8975 26.3461 21.931 26.6595 21.7735L26.4349 21.3267L26.2103 20.88C26.2051 20.8826 26.209 20.8802 26.2156 20.8803C26.2193 20.8804 26.209 20.8812 26.1806 20.8685C26.1143 20.839 26.0148 20.7668 25.8777 20.6274C25.7446 20.4921 25.6082 20.3276 25.4562 20.1432C25.3109 19.9669 25.1488 19.7692 24.9851 19.6016L24.6274 19.951ZM26.4349 21.3267L26.6593 21.7736C27.0583 21.5732 27.2765 21.1594 27.4534 20.7114C27.6387 20.2423 27.8353 19.5733 28.1016 18.6874L27.6227 18.5435L27.1439 18.3995C26.8699 19.3111 26.6888 19.9251 26.5233 20.344C26.3496 20.784 26.244 20.8631 26.2105 20.8799L26.4349 21.3267ZM27.6227 18.5435L28.1016 18.6872C28.6646 16.8111 28.7444 16.0832 28.7427 15.3516L28.2427 15.3527L27.7427 15.3539C27.7441 15.95 27.6919 16.5735 27.1438 18.3997L27.6227 18.5435ZM28.2427 15.3527L28.7427 15.3513C28.7406 14.6394 28.5467 14.0936 28.4898 13.8925L28.0087 14.0288L27.5276 14.1651C27.5982 14.4142 27.7411 14.8103 27.7427 15.3542L28.2427 15.3527ZM28.0087 14.0288L28.4901 13.8939C28.2773 13.1344 27.5896 12.0485 25.8762 11.6685L25.7679 12.1566L25.6596 12.6447C26.9709 12.9356 27.4017 13.7158 27.5272 14.1637L28.0087 14.0288ZM25.7679 12.1566L25.8757 11.6684C24.7258 11.4145 23.782 11.8092 23.5081 11.9356L23.7177 12.3896L23.9273 12.8435C24.1325 12.7488 24.8302 12.4616 25.6601 12.6448L25.7679 12.1566ZM9.2528 16.9203L9.19092 16.4241C8.89022 16.4616 7.88359 16.625 7.03863 17.4471L7.38729 17.8055L7.73596 18.1638C8.34741 17.569 9.09024 17.4444 9.31468 17.4165L9.2528 16.9203ZM7.38729 17.8055L7.03879 17.4469C5.77791 18.6725 5.75501 19.9575 5.96831 20.7179L6.44973 20.5828L6.93114 20.4478C6.80526 19.999 6.76711 19.1056 7.73579 18.164L7.38729 17.8055ZM6.44973 20.5828L5.9682 20.7175C6.02479 20.9199 6.14424 21.4859 6.51127 22.0934L6.93924 21.8349L7.3672 21.5763C7.08633 21.1114 7.00126 20.6985 6.93126 20.4482L6.44973 20.5828ZM6.93924 21.8349L6.51214 22.0948C6.89227 22.7193 7.33884 23.2961 8.79602 24.5967L9.12896 24.2237L9.4619 23.8506C8.04379 22.5849 7.67568 22.0831 7.36633 21.5749L6.93924 21.8349ZM9.12896 24.2237L8.79582 24.5965C9.48255 25.2101 9.9979 25.6767 10.3997 25.9788C10.7835 26.2673 11.1863 26.5062 11.6326 26.4656L11.5873 25.9677L11.542 25.4697C11.5066 25.4729 11.3772 25.4626 11.0006 25.1795C10.6422 24.91 10.1692 24.4827 9.46211 23.8508L9.12896 24.2237ZM11.5873 25.9677L11.6332 26.4655C11.9821 26.4334 12.2298 26.2393 12.3892 26.0055C12.5362 25.7899 12.6172 25.5305 12.6705 25.3C12.7251 25.0641 12.7612 24.8076 12.7934 24.5792C12.8271 24.3405 12.8565 24.1321 12.8975 23.9526L12.41 23.8414L11.9225 23.7302C11.8703 23.959 11.8352 24.2127 11.8032 24.4395C11.7698 24.6766 11.7392 24.8889 11.6962 25.0747C11.652 25.2659 11.6047 25.3809 11.5629 25.4423C11.5449 25.4687 11.5352 25.4741 11.5376 25.4725C11.5425 25.4693 11.5469 25.4693 11.5415 25.4698L11.5873 25.9677ZM12.41 23.8414L12.8975 23.9525C13.3382 22.0194 14.2075 20.567 14.8813 19.6459L14.4778 19.3507L14.0742 19.0555C13.3477 20.0486 12.4025 21.6249 11.9225 23.7302L12.41 23.8414ZM14.4778 19.3507L14.9008 19.6173C14.8996 19.6193 14.9019 19.6152 14.9203 19.5929C14.933 19.5776 14.9684 19.5363 14.9987 19.4953C15.0709 19.3976 15.1559 19.2501 15.1718 19.0439L14.6733 19.0054L14.1748 18.9669C14.1761 18.9501 14.1807 18.9315 14.1878 18.9149C14.1942 18.9002 14.1994 18.8943 14.1945 18.901C14.1861 18.9123 14.1792 18.9201 14.1508 18.9544C14.1281 18.9817 14.0904 19.0277 14.0548 19.0841L14.4778 19.3507ZM14.6733 19.0054L15.1717 19.045C15.1947 18.756 15.1184 18.5218 14.9751 18.334C14.912 18.2512 14.8438 18.1881 14.7928 18.1437C14.7152 18.0761 14.7241 18.0876 14.6744 18.043L14.3405 18.4151L14.0065 18.7873C14.0337 18.8117 14.0603 18.834 14.0814 18.8517C14.1044 18.8709 14.1204 18.8841 14.1361 18.8978C14.1668 18.9246 14.1768 18.9363 14.1801 18.9406C14.1808 18.9415 14.1771 18.9362 14.175 18.929C14.1733 18.923 14.1775 18.932 14.1748 18.9658L14.6733 19.0054ZM14.3405 18.4151L14.6727 18.0414C14.2238 17.6424 13.6124 17.3297 13.0519 17.0983C12.4836 16.8637 11.9273 16.6965 11.5585 16.6022L11.4346 17.0866L11.3107 17.571C11.6448 17.6565 12.1548 17.8098 12.6703 18.0227C13.1937 18.2387 13.6838 18.5004 14.0083 18.7888L14.3405 18.4151ZM11.4346 17.0866L11.5583 16.6021C10.6009 16.3576 9.50414 16.3844 9.1898 16.4243L9.2528 16.9203L9.3158 17.4163C9.53113 17.389 10.4983 17.3634 11.3108 17.571L11.4346 17.0866Z" fill="black"/>
<path fill-rule="evenodd" clip-rule="evenodd" d="M16.4766 28.4043C16.43 28.3584 16.2712 28.1941 16.1636 27.8133C15.8327 26.6435 16.1396 22.7327 16.8909 21.4027C17.0615 21.1019 17.3866 20.5677 18.0026 20.3809C18.5193 20.2236 18.9815 20.394 19.2353 20.4907C20.0435 20.8 20.7502 21.5644 21.5276 22.9659C22.1084 24.0143 21.9692 23.7263 22.6908 25.0998C22.8033 25.3139 22.985 25.6578 22.9755 26.1138C22.9624 26.6532 22.763 26.8376 22.5797 26.9794C22.0452 27.3656 21.5358 27.6076 21.1796 27.7764C19.5845 28.5289 18.4142 28.8247 17.437 28.7628C17.0777 28.7399 16.7301 28.6587 16.4766 28.4043Z" stroke="#222222"/>
<path fill-rule="evenodd" clip-rule="evenodd" d="M23.7174 12.3892C23.957 12.2786 24.7775 11.9383 25.7675 12.157C27.2799 12.4924 27.8392 13.4253 28.0083 14.0289C28.0721 14.254 28.2406 14.7251 28.2423 15.3531C28.2439 16.017 28.1777 16.6923 27.6222 18.5435C27.0818 20.3413 26.8668 21.1098 26.4342 21.3268C25.8239 21.6337 25.2113 20.5487 24.6273 19.951C23.1857 18.4743 21.6257 17.6633 20.5309 17.2189C20.4153 17.1615 20.2796 17.1589 20.1842 17.0266C19.9841 16.7523 20.0983 16.5579 20.1616 16.3498C20.4625 15.3552 21.4401 14.2071 21.946 13.6821C22.5815 13.0231 23.4738 12.5007 23.7174 12.3892Z" stroke="#222222"/>
<path fill-rule="evenodd" clip-rule="evenodd" d="M12.4104 23.8404C12.8707 21.8212 13.7776 20.3074 14.4778 19.3503C14.5465 19.2412 14.6609 19.1673 14.6735 19.0047C14.7005 18.665 14.5022 18.5596 14.3406 18.4146C13.5672 17.7271 12.1375 17.2655 11.4346 17.0857C10.5493 16.8595 9.51702 16.8865 9.25262 16.9202C8.99003 16.9529 8.11499 17.0958 7.38676 17.8044C6.27198 18.888 6.28036 19.9774 6.44995 20.582C6.51327 20.8084 6.61536 21.2981 6.93951 21.8345C7.28425 22.4008 7.6909 22.9396 9.12855 24.2227C10.5227 25.4684 11.1051 26.011 11.5869 25.9672C12.2663 25.9051 12.224 24.6573 12.4104 23.8404Z" stroke="#222222"/>
<line x1="25.6791" y1="26.0354" x2="26.2135" y2="24.4361" stroke="black"/>
<line x1="12.9798" y1="28.3759" x2="14.579" y2="28.9103" stroke="black"/>
<line x1="14.2074" y1="15.6068" x2="15.2742" y2="15.0744" stroke="black"/>
<line x1="30.9029" y1="13.5584" x2="30.3685" y2="15.1576" stroke="black"/>
</g>
<defs>
<clipPath id="clip0_315_53191">
<rect width="60" height="60" fill="white"/>
</clipPath>
</defs>
</svg>
